<svg xmlns="http://www.w3.org/2000/svg" version="1.1" xmlns:xlink="http://www.w3.org/1999/xlink" width="2950" height="2547.07"><svg id="SvgjsSvg1144" data-name="레이어 1" xmlns="http://www.w3.org/2000/svg" viewBox="0 0 2950 2547.07">
  <path d="M50.37,702.71c-31.94-27.95-32.3-61.89-35.68-111.26-.97-23.96-1.15-48.39-1.15-72.67.03-81.69-.03-179.81,0-265.08.01-31.87-.18-62.4.55-93.54,2.52-51.43,1.32-98.94,33.99-128.17C73.89,10.58,108.28,4.76,142.2,2.74c47.12-1.93,97.36,9.77,134.46,38.91,65.04,48.47,85.85,155.27,175.37,170.74,41.22,7.29,81.01-11.29,108.6-42.29,28.84-30.72,48.3-71.63,75.74-102.87,22.73-26.45,53.63-46.64,88.74-56.24,53.19-15.04,146.03-13.44,179.53,35.31,23.98,35.67,20.48,101.03,21.87,149.87.15,90.57,0,198.73.05,290.33-.25,53.45,1.19,101.52-4.87,149.25-1.9,13.03-4.63,24.51-8.62,34.48-9.81,26.71-33.6,43.16-60.11,50.76-57.83,17.16-134.11,11.27-184.05-26.42-38.69-27.92-58.1-72.31-83.1-111.73-16.06-24.99-34.15-47.62-59.15-62.6-37.49-22.55-85.99-20.2-121.16,5.13-17.05,12-31.26,28.39-43.27,45.55-31.71,46.07-51.57,100.08-100.29,130-31.99,20.61-71.53,29.21-109.5,29.27-35.37-.29-75.68-6.89-101.92-27.35l-.17-.13Z"></path>
  <path d="M1342.71,693.81c-16.88-25.67-18.33-63.49-20.83-96.05-6.78-111.61-11.73-141.94-84.41-229.1-58.75-71.7-122.21-148.79-181-220.39-18.97-23.28-43.83-52.51-58.09-72.73-17.71-26.08-27.96-42.04-17.17-55.21,7.01-7.48,23.32-11.62,47.56-14.18,38.1-3.93,89.75-3.88,131.19-3.6,90.92.63,134.94,4.41,201.71,71.08,34.59,32.5,75.76,67.51,125.59,67.28,39.75,1,75.95-21.55,105.07-47.18,35.31-30.89,66.44-67.28,112.1-79.94,33.12-10.09,67.06-10.57,102.54-11.15,40.99-.43,91.49-.44,129.51,3.11,68.56,6,69.29,23.87,30.16,76.13-70.9,89.17-162.21,196.28-235.09,285.66-52.1,63.65-73.23,95.12-79.97,178.89-5.48,47.57-.84,108.36-23.37,145.93-13.78,22.11-38.19,30-63.75,33.55-30.63,4.01-64.83,4.52-96.8,4.04-44.24-2.27-99.21,1.04-124.81-35.9l-.14-.21Z"></path>
  <path d="M2037.97,433.74c14.53-13.64-29.69-454.29,24.45-431.25,19,9.57,290.43-20.79,285.35,17.85,25.72,121.98-87.71,527.94,142.63,504.59,229.38,23.63,117.71-383.39,142.7-504.6-6.65-38.13,268.68-9.28,285.3-17.84,52.79-24.51,12.4,419.35,24.48,431.24-.99,422.23-903.89,422.09-904.91.01Z"></path>
  <path d="M26.43,1611c-24.33-17.96-23.95-41.23-25.94-79.61-1.09-145.98.03-355.58-.36-492.86.81-30.46-2.78-80.68,14.77-103.63,19.93-25.33,63.24-29.07,96.72-29.61,24.11.07,49.76,5.08,69.72,15.61,56.88,27.17,67.17,101.1,107.74,110.96,26.46,5.09,51.76-15.09,72.2-30.66,28.02-22.53,52.96-49.51,84.37-67.2,39.78-23.13,87.47-31.39,132.96-30.3,131.57,3.08,86.08,53.23,24.54,126.61-19.48,22.32-40.21,45.97-57.63,69.35-13.15,17.72-25.14,34.88-33.55,54.48-19.11,40.28.22,83.13,20,121.52,30.87,58.16,66.67,117.31,99.4,175.28,23.15,43.04,62.46,99.91,66.85,139.06,1.94,35.22-49.5,37.86-79.02,40.56-30.52,1.79-64.66.58-94.49-7.22-62.8-15.04-92.8-60.83-125.99-112.8-35.43-55.35-103.04-134.39-143.18-36.29-17.33,38.81-17.73,85.69-45.04,118.47-23.56,28.1-61.97,37.2-97.64,36.97-28.94.06-64.29-4.1-86.27-18.58l-.17-.11Z"></path>
  <path d="M797.18,1586.64c-54.03-50.62-50.02-134.58-52.16-205.1-.55-67.38-.35-134.62-.19-202.42,2.49-73-6.2-158,40.17-217.63,42.16-50.95,115.74-56.71,178.2-57.87,92.93.03,190.49,9.6,275.41,47.37,75.08,32.84,136.39,94.8,165.72,171.64,38.91,98.3,34.45,217.57-10.51,312.65-61.72,131.75-200.09,179.89-337.49,191.89-80.08,5.47-196.04,14.76-258.93-40.31l-.23-.2ZM986.22,1168.5c-13.59,37.82-11.82,82.5-11.41,122.93,1.23,41.48,5.97,89.01,40.82,115.39,25.86,19.86,62.42,22.38,93.33,13.17,71.48-20.7,100.79-93.69,97.18-162.88-2.14-55.31-26.54-110.79-77.81-134.79-52.29-25.55-120.62-13.08-141.98,45.86l-.12.32Z"></path>
  <path d="M1531.44,1605.44c-28.96-27.72-26.1-72.5-26.89-109.79-.05-153.56-.18-336.51.08-477.19.27-20.95.7-43.47,8.47-63.04,17.18-46.35,70.84-51.04,114.64-52.07,18.24-.59,36.52-.73,54.59-.76,156.29,0,367.19-1.37,427.45,169.2,21.49,61.59,20.82,130.86,1.61,193.04-14.9,49.87-45.94,96.2-43.49,149.24,1.16,49.8,31.31,94.23,43.81,140.94,4.39,16.92,3.9,36.36-5.11,48.46-18.35,24.59-55.11,25.94-83.81,26.77-37.7.11-76.47-4.64-106.72-24.89-42.64-26.8-59.1-81.23-95.41-113.62-40.69-33.45-67.13-.38-80.21,39.28-9.83,27.43-18.87,57.27-43.12,75.31-35.29,28.79-131.25,32.19-165.69-.68l-.21-.2ZM1749.86,1109.68c-19.17,29.06-20.19,74.56-7.95,107.24,13.85,37.7,52.32,53.14,88.87,38.66,52.75-19.63,70.2-89.01,40.13-134.63-25.61-41.69-91.05-55.69-120.86-11.54l-.19.27Z"></path>
  <path d="M2168.66,1267.25c-1.55-128.77,61.6-254.23,172.46-320.09,106.27-64.37,243.05-73.88,359.78-33.08,167.04,58.68,257.63,220.78,240.01,394.66-49.54,470.82-773.12,438.44-772.25-41.11v-.38ZM2707.21,1267.25c.92-62.82-32.5-124.69-91.88-147.34-47.23-18.84-107.36-13.85-148.99,16.25-69.32,49.19-80.18,156.52-35.36,225.89,29.56,45.81,85.25,68.42,139.05,63.41,83.43-5.95,138.34-75.49,137.17-157.83v-.38Z"></path>
  <path d="M13.53,2514.53c19.37-17.76-38.57-721.65,22.28-709.77.05-.04,238.16-.04,238.16-.04,60.88-11.93,2.98,692.14,22.36,709.84,37.54,21.19-293.21,35.91-282.8-.03Z"></path>
  <path d="M347.2,2514.03c-16.97-17.03,17.9-68.04,29.52-92.93,50.2-95.57,108.59-206.24,162.56-308.93,45.23-85.14,88.07-169.08,133.48-252.6,12.14-20.58,22.28-33.79,41.78-41.68,22.7-8.71,46.78-10.18,71.37-11.92,28.94-1.61,61.05-1.07,89.29,1.94,29.45,3.48,51.93,6.82,70.59,25.91,10.49,11.33,18.95,26.49,26.96,41.31,71.23,135.18,206.73,392.81,297.96,566.16,11.31,23.08,34.36,59.07,17.58,74.1-22.19,19.54-119.51,17.23-154.27,17.04-44.18-.45-88.62-6.48-123.61-33.88-16.41-12.1-29.96-26.1-46.16-38.38-13.81-10.56-29.34-19.26-46.01-24.77-30.74-10.27-67.78-11.39-103.62-11.62-40.66.46-80.27,1.47-114.69,16.62-32.57,13.63-54.88,40.89-83.13,61-48.46,35.79-118.02,31.71-175.96,30.65-27.37-1.74-77.19-1.88-93.57-17.92l-.09-.1ZM860.5,2184.42c-16.67-39.15-70.56-40.93-89.55-2.71-16.46,32.64,7.4,71,43.92,70.84,35.14.44,59.58-35.35,45.77-67.81l-.13-.32Z"></path>
  <path d="M1366.95,2509.84c-29.13-20.92-24.86-70.93-26.38-109.33-.21-64.62.06-128.7-.04-205.79-.06-83.56.03-169.45,0-248.08.09-23.1.43-49.45,2.55-67.37,3.57-36.25,16.61-56.29,52.13-65.27,57.58-13.51,159.65-15.27,214.94,11.9,46.43,22.16,76.31,64.88,107.59,105.39,30.39,39.39,101.28,129.7,146.4,73.56,15.95-20.78,23.66-48.8,30.01-74.33,7.29-29.34,11.32-55.84,27.08-79.34,18.81-27.91,51.53-40.23,84.58-43.72,31.49-3.41,69.64-1.5,98.84,4.88,35.41,7.41,54.8,23.85,59.44,59.45,1.71,10.85,2.55,23.35,3.05,37.44,1.33,150.18.55,362.64.29,508.67-.65,24.68-1.27,50.26-9.34,70.72-11.53,29.31-45.08,35.98-73.45,39.84-48.31,5.6-108.68,6.92-158.19-6.64-58.48-15.11-95.83-63.12-130.77-110.13-33.53-44.51-113.88-150.59-159.43-69.55-23.15,40.1-23.47,94.07-43.27,133.88-22.91,46.05-77.57,56.11-125.03,55.24-33.71-.51-76.16-3.79-100.86-21.31l-.16-.12Z"></path>
  <path d="M2229.18,2361.34c3.25-39.52,84.69-46.81,118.18-54.59,33.69-6.17,68.36-12.18,101.63-2.92,22.03,5.95,42.4,18.88,65.02,29.05,22.77,10.41,48.69,17.84,73.7,16.97,16.97-.44,39.89-4.31,48.14-16.95,13.09-28.63-59.45-48.65-80.35-55.51-32.42-9.85-64.38-18.28-98.09-29.42-50.13-16.28-102.33-38.49-143.16-71.2-49.84-38.74-81.39-97.74-77.4-160.52,21.15-256.75,497.06-295.38,653.57-108.47,24.81,31.85,40.47,68.46-5.25,88.35-23.98,10.78-52.15,15.81-78.12,21.59-31.97,5.99-86.79,21.64-111.77,5.41-11.64-8.96-5.48-24.59.12-35.81,3.57-7.18,7.62-13.66,9.43-18.02,2.17-5.13.68-7.64-6.52-8.25-7.51-.65-17.61.74-26.7,1.83-20.51,2.73-43.24,6.98-65.62,13.43-56.75,15.81-84.61,42.63-16.53,71.26,45.29,18.02,98.29,29.45,145.62,45.21,56.44,17.85,119.23,45.63,157.38,83.06,61.71,56.27,75.21,155.14,33.53,226.97-106.17,184.65-540.55,200.43-684.14-1.54-7.46-12.16-13.72-26.47-12.7-39.72l.02-.21Z"></path>
</svg><style>@media (prefers-color-scheme: light) { :root { filter: none; } }
@media (prefers-color-scheme: dark) { :root { filter: invert(100%); } }
</style></svg>